<?xml version="1.0" encoding="utf-8"?>
<!-- Generator: Adobe Illustrator 16.0.0, SVG Export Plug-In . SVG Version: 6.00 Build 0)  -->
<!DOCTYPE svg PUBLIC "-//W3C//DTD SVG 1.1//EN" "http://www.w3.org/Graphics/SVG/1.1/DTD/svg11.dtd">
<svg version="1.1" id="圖層_1" xmlns="http://www.w3.org/2000/svg" xmlns:xlink="http://www.w3.org/1999/xlink" x="0px" y="0px"
	 width="141.732px" height="141.732px" viewBox="0 0 141.732 141.732" enable-background="new 0 0 141.732 141.732"
	 xml:space="preserve">
<path fill="#FFFFFF" d="M86.515,61.994c0,1.937-0.501,3.752-1.5,5.446c-1,1.694-2.521,3.162-4.563,4.404
	c0.968,0.338,1.799,0.821,2.494,1.452s1.263,1.343,1.705,2.131c0.441,0.789,0.768,1.632,0.978,2.526
	c0.211,0.895,0.316,1.783,0.316,2.667v6.377c0,0.8,0.195,1.735,0.584,2.81c0.389,1.073,0.92,2.178,1.594,3.315H79.98
	c-0.316-0.505-0.575-1.031-0.774-1.579c-0.2-0.547-0.347-1.084-0.441-1.609c-0.096-0.526-0.157-1.021-0.19-1.484
	c-0.031-0.463-0.047-0.873-0.047-1.231v-6.692c0-0.651-0.11-1.305-0.332-1.957c-0.22-0.652-3.602,1.113-4.085,0.598
	c-0.485-0.516,1.901-3.286,1.102-3.613c-0.8-0.326-1.768-0.488-2.903-0.488H61.069v18.058h-7.45V49.083h18.689
	c2.272,0,4.294,0.378,6.061,1.136c1.768,0.758,3.257,1.747,4.467,2.968c1.21,1.22,2.126,2.599,2.747,4.135
	C86.203,58.857,86.515,60.416,86.515,61.994 M61.069,68.813h11.239c0.904,0,1.762-0.163,2.572-0.489
	c0.811-0.326,1.525-0.779,2.146-1.358c0.622-0.578,1.111-1.278,1.468-2.099c0.359-0.821,0.537-1.725,0.537-2.715
	c0-0.968-0.169-1.867-0.505-2.699c-0.336-0.831-0.805-1.547-1.405-2.147c-0.599-0.599-1.309-1.073-2.131-1.42
	c-0.82-0.348-1.715-0.521-2.683-0.521H61.069V68.813z"/>
</svg>
